
<svg id="Layer_2" xmlns="http://www.w3.org/2000/svg" viewBox="0 0 425.41 240.49">
  <defs>
    
  </defs>
  <g id="Layer_1-2" data-name="Layer_1">
    <g>
      <g>
        <g>
          <path class="cls-1" fill="#235A7C" d="M46.34,157.82v25c-1.24.76-2.65,1.43-4.23,2.01-1.58.57-3.21,1.06-4.91,1.47-1.7.41-3.41.7-5.16.9-1.74.19-3.38.29-4.91.29-4.3,0-8.13-.72-11.49-2.15-3.37-1.43-6.21-3.37-8.52-5.8-2.32-2.44-4.08-5.26-5.3-8.49-1.22-3.22-1.83-6.62-1.83-10.21,0-3.77.66-7.28,1.97-10.53,1.31-3.25,3.13-6.06,5.44-8.45,2.32-2.39,5.1-4.26,8.34-5.62,3.25-1.36,6.8-2.04,10.67-2.04,4.68,0,8.5.59,11.46,1.75,2.96,1.17,5.44,2.78,7.45,4.83l-4.87,5.23c-2.1-2.01-4.32-3.4-6.66-4.19-2.34-.79-4.8-1.18-7.38-1.18-2.91,0-5.54.54-7.88,1.61-2.34,1.07-4.35,2.52-6.02,4.33-1.67,1.82-2.96,3.95-3.87,6.41-.91,2.46-1.36,5.07-1.36,7.84s.5,5.53,1.5,7.99c1,2.46,2.39,4.6,4.15,6.41,1.77,1.82,3.84,3.24,6.23,4.26,2.39,1.03,4.99,1.54,7.81,1.54,2.44,0,4.74-.23,6.91-.68,2.17-.45,4.02-1.11,5.55-1.97v-14.11h-11.24v-6.45h18.12Z"></path>
          <path class="cls-1" fill="#235A7C" d="M53.64,152.23h6.45v5.23h.14c.43-.91,1-1.73,1.72-2.47.72-.74,1.52-1.37,2.4-1.9.88-.52,1.85-.94,2.9-1.25,1.05-.31,2.1-.47,3.15-.47s2.01.14,2.86.43l-.29,6.95c-.53-.14-1.05-.26-1.58-.36-.53-.1-1.05-.14-1.58-.14-3.15,0-5.56.88-7.23,2.65-1.67,1.77-2.51,4.51-2.51,8.24v17.05h-6.45v-33.95Z"></path>
          <path class="cls-1" fill="#235A7C" d="M80.14,171.57c0,1.48.32,2.83.97,4.05s1.49,2.26,2.54,3.12c1.05.86,2.27,1.53,3.65,2.01,1.38.48,2.82.72,4.3.72,2.01,0,3.75-.47,5.23-1.4,1.48-.93,2.84-2.16,4.08-3.69l4.87,3.72c-3.58,4.63-8.59,6.95-15.04,6.95-2.67,0-5.1-.45-7.27-1.36-2.17-.91-4.01-2.16-5.51-3.76-1.5-1.6-2.66-3.48-3.47-5.66-.81-2.17-1.22-4.52-1.22-7.05s.44-4.88,1.32-7.05c.88-2.17,2.1-4.06,3.65-5.66,1.55-1.6,3.4-2.85,5.55-3.76,2.15-.91,4.49-1.36,7.02-1.36,3.01,0,5.55.53,7.63,1.58,2.08,1.05,3.78,2.42,5.12,4.12,1.34,1.7,2.3,3.61,2.9,5.73.6,2.12.9,4.29.9,6.48v2.29h-27.22ZM100.48,166.41c-.05-1.43-.28-2.75-.68-3.94-.41-1.19-1.02-2.23-1.83-3.12-.81-.88-1.83-1.58-3.04-2.08s-2.64-.75-4.26-.75-3.02.3-4.33.9c-1.31.6-2.42,1.37-3.33,2.33-.91.96-1.61,2.02-2.11,3.19-.5,1.17-.75,2.33-.75,3.47h20.34Z"></path>
          <path class="cls-1" fill="#235A7C" d="M111.66,156.39c1.81-1.67,3.91-2.92,6.3-3.76,2.39-.83,4.77-1.25,7.16-1.25s4.62.31,6.41.93c1.79.62,3.26,1.46,4.4,2.51,1.15,1.05,1.99,2.26,2.54,3.62.55,1.36.82,2.78.82,4.26v17.33c0,1.19.02,2.29.07,3.29.05,1,.12,1.96.21,2.86h-5.73c-.14-1.72-.21-3.44-.21-5.16h-.14c-1.43,2.2-3.13,3.75-5.08,4.66-1.96.91-4.23,1.36-6.8,1.36-1.58,0-3.08-.21-4.51-.64-1.43-.43-2.69-1.07-3.76-1.93-1.07-.86-1.92-1.92-2.54-3.19-.62-1.26-.93-2.73-.93-4.4,0-2.2.49-4.03,1.47-5.51.98-1.48,2.32-2.69,4.01-3.62,1.69-.93,3.68-1.6,5.94-2.01,2.27-.4,4.69-.61,7.27-.61h4.73v-1.43c0-.86-.17-1.72-.5-2.58-.33-.86-.84-1.64-1.5-2.33-.67-.69-1.5-1.24-2.51-1.65-1-.41-2.2-.61-3.58-.61-1.24,0-2.33.12-3.26.36-.93.24-1.78.54-2.54.9-.76.36-1.46.78-2.08,1.25-.62.48-1.22.93-1.79,1.36l-3.87-4.01ZM129.85,169.85c-1.53,0-3.09.08-4.69.25-1.6.17-3.06.49-4.37.97-1.31.48-2.39,1.15-3.22,2.01-.84.86-1.25,1.96-1.25,3.29,0,1.96.66,3.37,1.97,4.23,1.31.86,3.09,1.29,5.34,1.29,1.77,0,3.27-.3,4.51-.9,1.24-.6,2.24-1.37,3.01-2.33.76-.95,1.31-2.02,1.65-3.19.33-1.17.5-2.33.5-3.47v-2.15h-3.44Z"></path>
          <path class="cls-1" fill="#235A7C" d="M163.29,157.82h-9.24v15.4c0,.96.02,1.9.07,2.83.05.93.23,1.77.54,2.51.31.74.79,1.34,1.43,1.79.64.45,1.59.68,2.83.68.76,0,1.55-.07,2.36-.21.81-.14,1.55-.41,2.22-.79v5.87c-.76.43-1.75.73-2.97.9-1.22.17-2.16.25-2.83.25-2.48,0-4.4-.35-5.77-1.04-1.36-.69-2.36-1.59-3.01-2.69-.64-1.1-1.03-2.33-1.15-3.69-.12-1.36-.18-2.73-.18-4.12v-17.69h-7.45v-5.59h7.45v-9.53h6.45v9.53h9.24v5.59Z"></path>
          <path class="cls-1" fill="#235A7C" d="M169.67,135.47h17.83c3.25,0,5.92.44,8.02,1.33,2.1.88,3.76,2.01,4.98,3.37,1.22,1.36,2.06,2.89,2.54,4.58.48,1.7.72,3.33.72,4.91s-.24,3.21-.72,4.91c-.48,1.7-1.33,3.22-2.54,4.58-1.22,1.36-2.88,2.48-4.98,3.37-2.1.88-4.77,1.32-8.02,1.32h-10.96v22.35h-6.88v-50.71ZM176.54,157.82h9.02c1.34,0,2.66-.11,3.97-.32,1.31-.21,2.48-.61,3.51-1.18,1.03-.57,1.85-1.4,2.47-2.47.62-1.07.93-2.47.93-4.19s-.31-3.12-.93-4.19c-.62-1.07-1.44-1.9-2.47-2.47-1.03-.57-2.2-.97-3.51-1.18-1.31-.21-2.64-.32-3.97-.32h-9.02v16.33Z"></path>
          <path class="cls-1" fill="#235A7C" d="M206.91,132.04h6.45v25.42h.14c.81-1.81,2.22-3.28,4.23-4.4,2.01-1.12,4.32-1.68,6.95-1.68,1.62,0,3.19.25,4.69.75,1.5.5,2.82,1.28,3.94,2.33,1.12,1.05,2.02,2.4,2.69,4.05.67,1.65,1,3.59,1,5.84v21.84h-6.45v-20.05c0-1.58-.22-2.92-.64-4.05-.43-1.12-1-2.03-1.72-2.72-.72-.69-1.54-1.19-2.47-1.5-.93-.31-1.9-.47-2.9-.47-1.34,0-2.58.21-3.72.64-1.15.43-2.15,1.11-3.01,2.04-.86.93-1.53,2.11-2.01,3.54-.48,1.43-.72,3.13-.72,5.08v17.48h-6.45v-54.14Z"></path>
          <path class="cls-1" fill="#235A7C" d="M239.14,152.23h7.45l10.05,26.5h.14l9.64-26.5h6.88l-16.11,41.25c-.57,1.48-1.17,2.83-1.78,4.05s-1.36,2.26-2.21,3.12c-.86.86-1.89,1.53-3.1,2.01-1.21.48-2.7.72-4.46.72-.95,0-1.91-.06-2.89-.18-.97-.12-1.91-.37-2.82-.75l.78-5.87c1.28.52,2.56.79,3.84.79,1,0,1.84-.13,2.53-.39.69-.26,1.28-.64,1.78-1.15.5-.5.91-1.09,1.25-1.75.33-.67.66-1.43,1-2.29l2.09-5.37-14.05-34.16Z"></path>
          <path class="cls-1" fill="#235A7C" d="M293.42,160.75c-.76-.95-1.71-1.75-2.83-2.4-1.12-.64-2.5-.97-4.12-.97-1.53,0-2.85.32-3.97.97-1.12.64-1.68,1.59-1.68,2.83,0,1,.32,1.82.97,2.44.64.62,1.41,1.12,2.29,1.5.88.38,1.83.67,2.83.86,1,.19,1.86.36,2.58.5,1.38.33,2.69.74,3.9,1.22,1.22.48,2.27,1.1,3.15,1.86.88.76,1.58,1.7,2.08,2.79.5,1.1.75,2.44.75,4.01,0,1.91-.41,3.55-1.22,4.91-.81,1.36-1.86,2.47-3.15,3.33s-2.76,1.48-4.4,1.86-3.31.57-4.98.57c-2.82,0-5.29-.43-7.41-1.29-2.13-.86-4.02-2.44-5.69-4.73l4.87-4.01c1.05,1.05,2.22,1.98,3.51,2.79,1.29.81,2.86,1.22,4.73,1.22.81,0,1.64-.08,2.47-.25.83-.17,1.58-.43,2.22-.79s1.17-.81,1.58-1.36c.41-.55.61-1.18.61-1.9,0-.95-.3-1.74-.9-2.36-.6-.62-1.31-1.11-2.15-1.47-.84-.36-1.72-.64-2.65-.86-.93-.21-1.75-.39-2.47-.54-1.39-.33-2.7-.72-3.94-1.15-1.24-.43-2.34-1-3.29-1.72-.96-.72-1.72-1.62-2.29-2.72-.57-1.1-.86-2.46-.86-4.08,0-1.77.37-3.31,1.11-4.62.74-1.31,1.72-2.4,2.94-3.26s2.6-1.5,4.15-1.93c1.55-.43,3.12-.64,4.69-.64,2.29,0,4.49.43,6.59,1.29,2.1.86,3.77,2.29,5.01,4.3l-5.01,3.8Z"></path>
          <path class="cls-1" fill="#235A7C" d="M302.59,140.06c0-1.29.47-2.4,1.4-3.33.93-.93,2.04-1.4,3.33-1.4s2.4.47,3.33,1.4c.93.93,1.4,2.04,1.4,3.33s-.47,2.4-1.4,3.33c-.93.93-2.04,1.4-3.33,1.4s-2.4-.47-3.33-1.4c-.93-.93-1.4-2.04-1.4-3.33ZM304.09,152.23h6.45v33.95h-6.45v-33.95Z"></path>
          <path class="cls-1" fill="#235A7C" d="M341.48,161.26c-1.19-1.24-2.45-2.18-3.76-2.83-1.31-.64-2.88-.97-4.69-.97s-3.31.32-4.62.97c-1.31.64-2.41,1.53-3.29,2.65-.88,1.12-1.55,2.41-2.01,3.87-.45,1.46-.68,2.97-.68,4.55s.26,3.07.79,4.48c.53,1.41,1.26,2.64,2.22,3.69.95,1.05,2.1,1.87,3.44,2.47,1.34.6,2.84.9,4.51.9,1.81,0,3.37-.32,4.66-.97,1.29-.64,2.48-1.59,3.58-2.83l4.58,4.58c-1.67,1.86-3.62,3.2-5.84,4.01-2.22.81-4.57,1.22-7.05,1.22-2.63,0-5.03-.43-7.2-1.29-2.17-.86-4.05-2.06-5.62-3.62-1.58-1.55-2.79-3.41-3.65-5.59-.86-2.17-1.29-4.57-1.29-7.2s.43-5.04,1.29-7.23c.86-2.2,2.06-4.08,3.62-5.66,1.55-1.58,3.41-2.8,5.59-3.69,2.17-.88,4.6-1.32,7.27-1.32,2.48,0,4.86.44,7.13,1.32,2.27.88,4.24,2.23,5.91,4.05l-4.87,4.44Z"></path>
          <path class="cls-1" fill="#235A7C" d="M347.14,140.06c0-1.29.47-2.4,1.4-3.33.93-.93,2.04-1.4,3.33-1.4s2.4.47,3.33,1.4c.93.93,1.4,2.04,1.4,3.33s-.47,2.4-1.4,3.33c-.93.93-2.04,1.4-3.33,1.4s-2.4-.47-3.33-1.4c-.93-.93-1.4-2.04-1.4-3.33ZM348.64,152.23h6.45v33.95h-6.45v-33.95Z"></path>
          <path class="cls-1" fill="#235A7C" d="M361.89,156.39c1.81-1.67,3.91-2.92,6.3-3.76,2.39-.83,4.77-1.25,7.16-1.25s4.62.31,6.41.93c1.79.62,3.26,1.46,4.4,2.51,1.15,1.05,1.99,2.26,2.54,3.62.55,1.36.82,2.78.82,4.26v17.33c0,1.19.02,2.29.07,3.29.05,1,.12,1.96.21,2.86h-5.73c-.14-1.72-.22-3.44-.22-5.16h-.14c-1.43,2.2-3.13,3.75-5.09,4.66-1.96.91-4.23,1.36-6.8,1.36-1.58,0-3.08-.21-4.51-.64-1.43-.43-2.69-1.07-3.76-1.93s-1.92-1.92-2.54-3.19c-.62-1.26-.93-2.73-.93-4.4,0-2.2.49-4.03,1.47-5.51.98-1.48,2.32-2.69,4.01-3.62,1.69-.93,3.68-1.6,5.94-2.01,2.27-.4,4.69-.61,7.27-.61h4.73v-1.43c0-.86-.17-1.72-.5-2.58-.33-.86-.84-1.64-1.5-2.33-.67-.69-1.5-1.24-2.51-1.65-1-.41-2.2-.61-3.58-.61-1.24,0-2.33.12-3.26.36-.93.24-1.78.54-2.54.9-.76.36-1.46.78-2.08,1.25-.62.48-1.22.93-1.79,1.36l-3.87-4.01ZM380.08,169.85c-1.53,0-3.09.08-4.69.25-1.6.17-3.06.49-4.37.97-1.31.48-2.39,1.15-3.22,2.01-.84.86-1.25,1.96-1.25,3.29,0,1.96.66,3.37,1.97,4.23,1.31.86,3.09,1.29,5.34,1.29,1.77,0,3.27-.3,4.51-.9,1.24-.6,2.24-1.37,3.01-2.33.76-.95,1.31-2.02,1.65-3.19.33-1.17.5-2.33.5-3.47v-2.15h-3.44Z"></path>
          <path class="cls-1" fill="#235A7C" d="M395.33,152.23h6.45v5.23h.14c.81-1.81,2.22-3.28,4.23-4.4,2.01-1.12,4.32-1.68,6.95-1.68,1.62,0,3.19.25,4.69.75,1.5.5,2.82,1.28,3.94,2.33,1.12,1.05,2.02,2.4,2.69,4.05.67,1.65,1,3.59,1,5.84v21.84h-6.45v-20.05c0-1.58-.22-2.92-.64-4.05-.43-1.12-1-2.03-1.72-2.72-.72-.69-1.54-1.19-2.47-1.5-.93-.31-1.9-.47-2.9-.47-1.34,0-2.58.21-3.72.64-1.15.43-2.15,1.11-3.01,2.04-.86.93-1.53,2.11-2.01,3.54-.48,1.43-.72,3.13-.72,5.08v17.48h-6.45v-33.95Z"></path>
        </g>
        <g>
          <path class="cls-1" fill="#2EA84E" d="M211.92,84c-.97,0-1.81-.1-2.71-.26l-1.85-.31c-4.95-1.05-9.48-3.03-13.71-5.84.09-3.94,1.73-7.36,4.31-10.29,3.09,2.44,6.54,4.11,10.26,5.16l1.21.29,1.57.29,2.31.3,2.22.1,2.23-.1,2.14-.29,1.44-.25-.06,1.09-.11,1.62,1.84.14c.1-1.83.25-3.57.69-5.32.82-3.31,2.44-6.34,4.87-8.72l1.9-1.68c1.79-1.35,3.74-2.39,5.86-3.15s4.3-1.37,6.57-1.62l2.71-.29,2.68-.2,2.29-.04c.06,0,.25.05.23.08l-.11.16c.09.88.02,1.68-.11,2.54l-.36,2.36-.27,1.51c-.3,1.65-.78,3.2-1.33,4.78-.59,1.71-1.34,3.25-2.24,4.81-2.21,3.78-5.61,6.89-9.69,8.52-3.63,1.45-7.62,1.87-11.61,1.3,2.14-3.41,4.56-6.55,7.32-9.43l1.67-1.74,5.01-4.71,2.59-2.2c.41-.35.95-.56,1.17-1.13l-4.71,2.85c-4.07,2.46-8.8,6.64-11.72,10.39l-3.94,5.05c-.99,1.27-2.2,2.24-3.59,3-.99.54-2,.85-3.1,1.05l-1.64.16h-2.2Z"></path>
          <circle class="cls-1" fill="#235A7C" cx="224.73" cy="24.87" r="4.16"></circle>
          <path class="cls-1" fill="#235A7C" d="M222.68,37.59c1.11-1.45,1.7-2.96,1.7-4.76,1.94,1.68,3.9,2.88,6.35,2.28,3.07-.8,5.49-2.88,7.8-5.11-1.34,3.44-3.84,6.93-7.12,8.52-2.98,1.44-5.92.91-8.73-.93Z"></path>
          <path class="cls-1" fill="#235A7C" d="M215.61,55.75l1.75-1.59,3.1-3.08.63-.73-5.17-1.4-4.51-1.21c-.69-.19-1.3-.61-1.83-1.08-1.6-1.44-1.62-3.69-.35-5.52l3.92-5.06,2.86-3.67c-2.63-1.81-5.94-2.21-8.99-1.24s-5.34,2.56-7.92,4.45c.5-.95,1.07-1.69,1.65-2.49,2.94-3.79,6.93-6.97,11.94-6.55,1.91.16,3.67.69,5.43,1.39l2.31,1.08c1.38.64,2.2,1.97,2.29,3.53.08,1.38-.37,2.75-1.25,3.85l-2.26,2.8-3.06,3.63,3.11,1.15c1.88.7,3.69,1.44,5.45,2.41.89.5,1.74,1.07,2.26,1.97.93,1.59-.2,3.46-1.71,4.57l-2.11,1.55-5.3,3.06c-2.84,1.36-5.6,2.66-8.67,3.76l3.51-3.04,2.92-2.56Z"></path>
          <g>
            <path class="cls-1" fill="#235A7C" d="M185.69,40.1c-.45,8.18,2.04,16.09,7.23,22.43l-1.79,2.99c-1.4,2.67-2.12,5.53-2.21,8.64-8.73-7.76-13.8-18.71-14.28-30.33v-3.96c.48-9.63,4.23-18.77,10.58-26l1.08-1.17,1.23-1.22c3.4-3.39,7.43-6.06,11.82-8.04s9.34-3.18,14.3-3.43h3.87c6.12.33,12.05,2.01,17.38,5.02,2.75,1.55,5.2,3.4,7.49,5.54,1.34,1.25,2.48,2.55,3.64,3.97.05.06.02.24-.04.3l-2.11,2.03-5.46,5.4c-1.17-1.37-2.22-2.61-3.49-3.77-3.53-3.19-7.67-5.53-12.3-6.72-9.78-2.4-19.66.2-27.02,7.04-5.92,5.51-9.48,13.19-9.92,21.28Z"></path>
            <path class="cls-1" fill="#235A7C" d="M199.96,62.3l-1.99,2.09c-1.52,1.6-2.82,3.32-3.94,5.23-1.61,2.87-2.32,5.93-2.2,9.33-1.74-3.83-1.14-8.05.54-11.81.78-1.61,1.65-3.08,2.71-4.51l2.35-3.2,9.79-13.17c1.11,2.07,2.88,2.93,5,3.42l-1.04,1.11-2.95,3.04-4.58,4.69-3.68,3.77Z"></path>
          </g>
        </g>
      </g>
      <g>
        <path class="cls-1" fill="#235A7C" d="M55.33,228.67c2.84,0,4.3,1.51,4.3,3.37,0,1.32-.71,2.34-2.17,2.89.81.43,1.23.82,2.28,2.38l2.02,3.03h-2.86l-1.8-2.77c-1.17-1.81-1.94-2.14-2.96-2.14h-.73v4.91h-2.53v-11.66h4.45ZM53.41,233.77h1.29c1.32,0,2.36-.33,2.36-1.71,0-1.04-.71-1.68-2.11-1.68h-1.54v3.39Z"></path>
        <path class="cls-1" fill="#235A7C" d="M75.79,228.67v1.76h-5.61v3.1h5.39v1.76h-5.39v3.27h5.78v1.78h-8.31v-11.66h8.14Z"></path>
        <path class="cls-1" fill="#235A7C" d="M94.24,231.51c-1.46-.77-3.01-1.15-4.53-1.15-3.07,0-4.91,1.97-4.91,4.16,0,2.31,1.92,4.1,4.82,4.1.88,0,1.36-.09,2.51-.39v-2.1h-2.26v-1.74h4.64v5.15c-1.77.68-3.4.96-5.11.96-4.76,0-7.22-2.82-7.22-5.92s2.69-6.05,7.24-6.05c1.63,0,2.88.22,4.82.94v2.05Z"></path>
        <path class="cls-1" fill="#235A7C" d="M109.83,228.67v1.76h-5.61v3.1h5.39v1.76h-5.39v3.27h5.78v1.78h-8.31v-11.66h8.14Z"></path>
        <path class="cls-1" fill="#235A7C" d="M118.97,228.67l8.12,8.23v-8.23h2.48v11.66h-2.23l-8.06-8.17v8.17h-2.48v-11.66h2.17Z"></path>
        <path class="cls-1" fill="#235A7C" d="M144.97,228.67v1.76h-5.61v3.1h5.39v1.76h-5.39v3.27h5.78v1.78h-8.31v-11.66h8.14Z"></path>
        <path class="cls-1" fill="#235A7C" d="M156.39,228.67c2.84,0,4.3,1.51,4.3,3.37,0,1.32-.71,2.34-2.17,2.89.81.43,1.23.82,2.28,2.38l2.02,3.03h-2.86l-1.8-2.77c-1.17-1.81-1.94-2.14-2.96-2.14h-.73v4.91h-2.53v-11.66h4.45ZM154.47,233.77h1.29c1.32,0,2.36-.33,2.36-1.71,0-1.04-.71-1.68-2.11-1.68h-1.54v3.39Z"></path>
        <path class="cls-1" fill="#235A7C" d="M175.25,228.62l5.82,11.71h-2.59l-1.52-3.1h-5.6l-1.46,3.1h-2.59l5.66-11.71h2.28ZM172.16,235.56h3.97l-2.03-4.22-1.94,4.22Z"></path>
        <path class="cls-1" fill="#235A7C" d="M195.98,228.67v1.92h-4.63v9.75h-2.53v-9.75h-4.59v-1.92h11.75Z"></path>
        <path class="cls-1" fill="#235A7C" d="M204.68,228.67v11.66h-2.53v-11.66h2.53Z"></path>
        <path class="cls-1" fill="#235A7C" d="M213.11,228.67l3.65,7.73,3.61-7.73h2.57l-5.62,11.76h-1.11l-5.68-11.76h2.59Z"></path>
        <path class="cls-1" fill="#235A7C" d="M236.92,228.67v1.76h-5.61v3.1h5.39v1.76h-5.39v3.27h5.78v1.78h-8.31v-11.66h8.14Z"></path>
        <path class="cls-1" fill="#235A7C" d="M256.1,228.67l4.24,4.65,4.22-4.65h2.32v11.66h-2.53v-8.33l-3.86,4.31h-.35l-3.9-4.31v8.33h-2.5v-11.66h2.34Z"></path>
        <path class="cls-1" fill="#235A7C" d="M282.31,228.67v1.76h-5.61v3.1h5.39v1.76h-5.39v3.27h5.78v1.78h-8.31v-11.66h8.14Z"></path>
        <path class="cls-1" fill="#235A7C" d="M294.52,228.67c4.61,0,7.22,2.43,7.22,5.75,0,3.63-2.71,5.92-7.14,5.92h-5.32v-11.66h5.24ZM294.4,238.54c3.07,0,4.74-1.47,4.74-4.07,0-2.46-1.65-4.04-4.93-4.04h-2.4v8.11h2.59Z"></path>
        <path class="cls-1" fill="#235A7C" d="M310.95,228.67v11.66h-2.53v-11.66h2.53Z"></path>
        <path class="cls-1" fill="#235A7C" d="M329.56,229.44v2.21c-1.44-.77-2.9-1.2-4.45-1.2-3.09,0-4.86,1.97-4.86,4.09s1.77,4.02,4.82,4.02c1.65,0,3.17-.44,4.59-1.28v2.19c-1.5.72-3.11,1.03-4.88,1.03-4.7,0-7.14-2.96-7.14-5.97,0-3.56,3.15-6,7.18-6,1.5,0,3.07.29,4.74.92Z"></path>
        <path class="cls-1" fill="#235A7C" d="M338.95,228.67v11.66h-2.53v-11.66h2.53Z"></path>
        <path class="cls-1" fill="#235A7C" d="M348.37,228.67l8.12,8.23v-8.23h2.48v11.66h-2.23l-8.06-8.17v8.17h-2.48v-11.66h2.17Z"></path>
        <path class="cls-1" fill="#235A7C" d="M374.37,228.67v1.76h-5.61v3.1h5.39v1.76h-5.39v3.27h5.78v1.78h-8.31v-11.66h8.14Z"></path>
      </g>
    </g>
  </g>
</svg>