
<svg id="Layer_2" xmlns="http://www.w3.org/2000/svg" viewBox="0 0 313.52 72.03">
  <defs>
    
  </defs>
  <g id="Layer_1-2" data-name="Layer_1">
    <g>
      <g>
        <path class="cls-2" fill="#FFFFFF" d="M106.79,36.04v13.63c-.68.42-1.45.78-2.3,1.09-.86.31-1.75.58-2.68.8-.92.22-1.86.38-2.81.49-.95.1-1.84.16-2.68.16-2.34,0-4.43-.39-6.27-1.17-1.84-.78-3.39-1.84-4.65-3.16-1.26-1.33-2.23-2.87-2.89-4.63-.66-1.76-1-3.61-1-5.57,0-2.06.36-3.97,1.07-5.74.72-1.77,1.71-3.31,2.97-4.61,1.26-1.3,2.78-2.32,4.55-3.07,1.77-.74,3.71-1.11,5.82-1.11,2.55,0,4.63.32,6.25.96,1.61.64,2.97,1.52,4.06,2.64l-2.66,2.85c-1.15-1.09-2.36-1.86-3.63-2.28-1.28-.43-2.62-.64-4.02-.64-1.59,0-3.02.29-4.3.88-1.28.59-2.37,1.37-3.28,2.36-.91.99-1.61,2.15-2.11,3.5-.49,1.34-.74,2.77-.74,4.28s.27,3.01.82,4.35c.55,1.34,1.3,2.51,2.27,3.5.96.99,2.1,1.76,3.4,2.32,1.3.56,2.72.84,4.26.84,1.33,0,2.58-.12,3.77-.37,1.18-.25,2.19-.61,3.03-1.07v-7.69h-6.13v-3.52h9.88Z"></path>
        <path class="cls-2" fill="#FFFFFF" d="M110.78,32.99h3.52v2.85h.08c.23-.49.55-.94.94-1.35.39-.4.83-.75,1.31-1.03.48-.29,1.01-.51,1.58-.68.57-.17,1.15-.25,1.72-.25s1.09.08,1.56.23l-.16,3.79c-.29-.08-.57-.14-.86-.2-.29-.05-.57-.08-.86-.08-1.72,0-3.03.48-3.94,1.45-.91.96-1.37,2.46-1.37,4.49v9.3h-3.52v-18.51Z"></path>
        <path class="cls-2" fill="#FFFFFF" d="M125.23,43.54c0,.81.18,1.54.53,2.21s.81,1.23,1.39,1.7c.57.47,1.24.83,1.99,1.09.75.26,1.54.39,2.34.39,1.09,0,2.04-.25,2.85-.76.81-.51,1.55-1.18,2.23-2.01l2.66,2.03c-1.95,2.53-4.69,3.79-8.2,3.79-1.46,0-2.78-.25-3.96-.74-1.19-.49-2.19-1.18-3.01-2.05-.82-.87-1.45-1.9-1.89-3.09-.44-1.18-.66-2.47-.66-3.85s.24-2.66.72-3.85c.48-1.18,1.15-2.21,1.99-3.09.85-.87,1.86-1.56,3.03-2.05,1.17-.49,2.45-.74,3.83-.74,1.64,0,3.03.29,4.16.86,1.13.57,2.06,1.32,2.79,2.25.73.92,1.26,1.97,1.58,3.12.33,1.16.49,2.34.49,3.53v1.25h-14.84ZM136.32,40.73c-.03-.78-.15-1.5-.37-2.15-.22-.65-.55-1.22-1-1.7-.44-.48-1-.86-1.66-1.13s-1.44-.41-2.32-.41-1.65.16-2.36.49c-.72.33-1.32.75-1.82,1.27-.49.52-.88,1.1-1.15,1.74-.27.64-.41,1.27-.41,1.89h11.09Z"></path>
        <path class="cls-2" fill="#FFFFFF" d="M142.41,35.26c.99-.91,2.13-1.59,3.44-2.05,1.3-.46,2.6-.68,3.91-.68s2.52.17,3.5.51c.98.34,1.78.79,2.4,1.37.62.57,1.09,1.23,1.39,1.97.3.74.45,1.52.45,2.32v9.45c0,.65.01,1.25.04,1.8.03.55.06,1.07.12,1.56h-3.12c-.08-.94-.12-1.87-.12-2.81h-.08c-.78,1.2-1.71,2.04-2.77,2.54-1.07.49-2.3.74-3.71.74-.86,0-1.68-.12-2.46-.35-.78-.23-1.46-.59-2.05-1.05-.59-.47-1.05-1.05-1.39-1.74-.34-.69-.51-1.49-.51-2.4,0-1.2.27-2.2.8-3.01.53-.81,1.26-1.46,2.19-1.97.92-.51,2-.87,3.24-1.09,1.24-.22,2.56-.33,3.96-.33h2.58v-.78c0-.47-.09-.94-.27-1.41-.18-.47-.46-.89-.82-1.27-.36-.38-.82-.68-1.37-.9-.55-.22-1.2-.33-1.95-.33-.68,0-1.27.07-1.78.2-.51.13-.97.29-1.39.49-.42.2-.79.42-1.13.68-.34.26-.66.51-.98.74l-2.11-2.19ZM152.34,42.6c-.83,0-1.69.05-2.56.14-.87.09-1.67.27-2.38.53-.72.26-1.3.62-1.76,1.09-.46.47-.68,1.07-.68,1.8,0,1.07.36,1.84,1.07,2.3.72.47,1.69.7,2.91.7.96,0,1.78-.16,2.46-.49.68-.33,1.22-.75,1.64-1.27.42-.52.72-1.1.9-1.74.18-.64.27-1.27.27-1.89v-1.17h-1.87Z"></path>
        <path class="cls-2" fill="#FFFFFF" d="M170.58,36.04h-5.04v8.4c0,.52.01,1.03.04,1.54.03.51.12.96.29,1.37.17.4.43.73.78.98.35.25.87.37,1.54.37.42,0,.85-.04,1.29-.12.44-.08.85-.22,1.21-.43v3.2c-.42.23-.96.4-1.62.49-.66.09-1.18.14-1.54.14-1.35,0-2.4-.19-3.14-.57-.74-.38-1.29-.87-1.64-1.46-.35-.6-.56-1.27-.62-2.01-.07-.74-.1-1.49-.1-2.25v-9.65h-4.06v-3.05h4.06v-5.19h3.52v5.19h5.04v3.05Z"></path>
        <path class="cls-2" fill="#FFFFFF" d="M174.05,23.85h9.73c1.77,0,3.23.24,4.37.72,1.15.48,2.05,1.09,2.71,1.84.66.74,1.13,1.58,1.39,2.5.26.92.39,1.82.39,2.68s-.13,1.75-.39,2.68c-.26.92-.72,1.76-1.39,2.5-.66.74-1.57,1.35-2.71,1.84-1.15.48-2.6.72-4.37.72h-5.98v12.19h-3.75v-27.65ZM177.8,36.04h4.92c.73,0,1.45-.06,2.17-.18.72-.12,1.35-.33,1.91-.64.56-.31,1.01-.76,1.35-1.35.34-.59.51-1.35.51-2.28s-.17-1.7-.51-2.28c-.34-.59-.79-1.04-1.35-1.35-.56-.31-1.2-.53-1.91-.64-.72-.12-1.44-.18-2.17-.18h-4.92v8.91Z"></path>
        <path class="cls-2" fill="#FFFFFF" d="M194.36,21.98h3.52v13.87h.08c.44-.99,1.21-1.79,2.3-2.4,1.09-.61,2.36-.92,3.79-.92.88,0,1.74.14,2.56.41.82.27,1.54.7,2.15,1.27.61.57,1.1,1.31,1.46,2.21.36.9.55,1.96.55,3.18v11.91h-3.52v-10.94c0-.86-.12-1.59-.35-2.21-.23-.61-.55-1.11-.94-1.48-.39-.38-.84-.65-1.35-.82-.51-.17-1.04-.25-1.58-.25-.73,0-1.41.12-2.03.35s-1.17.61-1.64,1.11c-.47.51-.83,1.15-1.09,1.93-.26.78-.39,1.71-.39,2.77v9.53h-3.52v-29.53Z"></path>
        <path class="cls-2" fill="#FFFFFF" d="M211.94,32.99h4.06l5.48,14.45h.08l5.26-14.45h3.75l-8.79,22.5c-.31.81-.64,1.54-.97,2.21s-.74,1.23-1.21,1.7c-.47.47-1.03.83-1.69,1.09-.66.26-1.47.39-2.43.39-.52,0-1.04-.03-1.58-.1-.53-.07-1.04-.2-1.54-.41l.43-3.2c.7.29,1.4.43,2.1.43.54,0,1-.07,1.38-.21.37-.14.7-.35.97-.62.27-.27.5-.59.68-.96.18-.36.36-.78.54-1.25l1.14-2.93-7.66-18.63Z"></path>
        <path class="cls-2" fill="#FFFFFF" d="M241.54,37.64c-.42-.52-.93-.96-1.54-1.31-.61-.35-1.36-.53-2.25-.53-.83,0-1.56.18-2.17.53-.61.35-.92.87-.92,1.54,0,.55.18.99.53,1.33.35.34.77.61,1.25.82.48.21,1,.36,1.54.47.55.1,1.02.2,1.41.27.75.18,1.46.4,2.13.66.66.26,1.24.6,1.72,1.02.48.42.86.92,1.13,1.52.27.6.41,1.33.41,2.19,0,1.04-.22,1.93-.66,2.68-.44.74-1.02,1.35-1.72,1.82-.7.47-1.5.81-2.4,1.02-.9.21-1.8.31-2.71.31-1.54,0-2.88-.23-4.04-.7-1.16-.47-2.19-1.33-3.11-2.58l2.66-2.19c.57.57,1.21,1.08,1.91,1.52.7.44,1.56.66,2.58.66.44,0,.89-.05,1.35-.14.46-.09.86-.23,1.21-.43.35-.2.64-.44.86-.74.22-.3.33-.64.33-1.04,0-.52-.16-.95-.49-1.29-.33-.34-.72-.61-1.17-.8-.46-.2-.94-.35-1.44-.47-.51-.12-.96-.21-1.35-.29-.76-.18-1.47-.39-2.15-.62-.68-.23-1.28-.55-1.8-.94-.52-.39-.94-.88-1.25-1.48-.31-.6-.47-1.34-.47-2.23,0-.96.2-1.8.61-2.52.4-.72.94-1.31,1.6-1.78.66-.47,1.42-.82,2.27-1.05.85-.23,1.7-.35,2.56-.35,1.25,0,2.45.23,3.59.7,1.15.47,2.06,1.25,2.73,2.34l-2.73,2.07Z"></path>
        <path class="cls-2" fill="#FFFFFF" d="M246.54,26.35c0-.7.25-1.31.76-1.82s1.11-.76,1.82-.76,1.31.25,1.82.76c.51.51.76,1.11.76,1.82s-.25,1.31-.76,1.82c-.51.51-1.11.76-1.82.76s-1.31-.25-1.82-.76c-.51-.51-.76-1.11-.76-1.82ZM247.36,32.99h3.52v18.51h-3.52v-18.51Z"></path>
        <path class="cls-2" fill="#FFFFFF" d="M267.75,37.91c-.65-.68-1.33-1.19-2.05-1.54-.72-.35-1.57-.53-2.56-.53s-1.8.18-2.52.53c-.72.35-1.32.83-1.8,1.45-.48.61-.85,1.32-1.09,2.11-.25.79-.37,1.62-.37,2.48s.14,1.67.43,2.44c.29.77.69,1.44,1.21,2.01.52.57,1.15,1.02,1.87,1.35.73.33,1.55.49,2.46.49.99,0,1.84-.18,2.54-.53.7-.35,1.35-.87,1.95-1.54l2.5,2.5c-.91,1.02-1.97,1.74-3.18,2.19-1.21.44-2.49.66-3.85.66-1.43,0-2.74-.23-3.93-.7-1.19-.47-2.21-1.13-3.07-1.97-.86-.85-1.52-1.86-1.99-3.05-.47-1.18-.7-2.49-.7-3.93s.23-2.75.7-3.94c.47-1.2,1.13-2.23,1.97-3.09.85-.86,1.86-1.53,3.05-2.01,1.18-.48,2.51-.72,3.96-.72,1.35,0,2.65.24,3.89.72,1.24.48,2.31,1.22,3.22,2.21l-2.66,2.42Z"></path>
        <path class="cls-2" fill="#FFFFFF" d="M270.83,26.35c0-.7.25-1.31.76-1.82s1.11-.76,1.82-.76,1.31.25,1.82.76c.51.51.76,1.11.76,1.82s-.25,1.31-.76,1.82c-.51.51-1.11.76-1.82.76s-1.31-.25-1.82-.76c-.51-.51-.76-1.11-.76-1.82ZM271.65,32.99h3.52v18.51h-3.52v-18.51Z"></path>
        <path class="cls-2" fill="#FFFFFF" d="M278.88,35.26c.99-.91,2.13-1.59,3.44-2.05,1.3-.46,2.6-.68,3.91-.68s2.52.17,3.5.51c.98.34,1.78.79,2.4,1.37.62.57,1.09,1.23,1.39,1.97.3.74.45,1.52.45,2.32v9.45c0,.65.01,1.25.04,1.8.03.55.06,1.07.12,1.56h-3.12c-.08-.94-.12-1.87-.12-2.81h-.08c-.78,1.2-1.71,2.04-2.77,2.54-1.07.49-2.3.74-3.71.74-.86,0-1.68-.12-2.46-.35-.78-.23-1.46-.59-2.05-1.05-.59-.47-1.05-1.05-1.39-1.74-.34-.69-.51-1.49-.51-2.4,0-1.2.27-2.2.8-3.01.53-.81,1.26-1.46,2.19-1.97.92-.51,2-.87,3.24-1.09,1.24-.22,2.56-.33,3.96-.33h2.58v-.78c0-.47-.09-.94-.27-1.41-.18-.47-.46-.89-.82-1.27-.36-.38-.82-.68-1.37-.9-.55-.22-1.2-.33-1.95-.33-.68,0-1.27.07-1.78.2-.51.13-.97.29-1.39.49-.42.2-.79.42-1.13.68-.34.26-.66.51-.98.74l-2.11-2.19ZM288.8,42.6c-.83,0-1.69.05-2.56.14-.87.09-1.67.27-2.38.53-.72.26-1.3.62-1.76,1.09-.46.47-.68,1.07-.68,1.8,0,1.07.36,1.84,1.07,2.3.72.47,1.69.7,2.91.7.96,0,1.78-.16,2.46-.49.68-.33,1.22-.75,1.64-1.27.42-.52.72-1.1.9-1.74.18-.64.27-1.27.27-1.89v-1.17h-1.87Z"></path>
        <path class="cls-2" fill="#FFFFFF" d="M297.12,32.99h3.52v2.85h.08c.44-.99,1.21-1.79,2.3-2.4,1.09-.61,2.36-.92,3.79-.92.88,0,1.74.14,2.56.41.82.27,1.54.7,2.15,1.27.61.57,1.1,1.31,1.46,2.21.36.9.55,1.96.55,3.18v11.91h-3.52v-10.94c0-.86-.12-1.59-.35-2.21-.23-.61-.55-1.11-.94-1.48-.39-.38-.84-.65-1.35-.82-.51-.17-1.04-.25-1.58-.25-.73,0-1.41.12-2.03.35-.62.23-1.17.61-1.64,1.11-.47.51-.83,1.15-1.09,1.93-.26.78-.39,1.71-.39,2.77v9.53h-3.52v-18.51Z"></path>
      </g>
      <g>
        <path class="cls-1" fill="#7FD9B0" d="M31.97,72.03c-.83,0-1.55-.09-2.33-.22l-1.59-.27c-4.25-.9-8.12-2.6-11.76-5,.08-3.38,1.48-6.31,3.7-8.82,2.65,2.09,5.61,3.52,8.79,4.42l1.04.25,1.35.25,1.98.25,1.9.08,1.91-.08,1.83-.25,1.23-.21-.05.94-.1,1.39,1.58.12c.08-1.57.22-3.06.59-4.56.7-2.84,2.1-5.43,4.17-7.47l1.63-1.44c1.54-1.16,3.2-2.05,5.02-2.7s3.68-1.18,5.63-1.39l2.32-.25,2.3-.17,1.96-.03s.21.04.19.07l-.09.14c.08.75.02,1.44-.1,2.18l-.31,2.02-.23,1.29c-.26,1.42-.67,2.74-1.14,4.1-.5,1.46-1.14,2.79-1.92,4.12-1.89,3.24-4.81,5.91-8.31,7.31-3.12,1.24-6.54,1.6-9.95,1.12,1.83-2.92,3.91-5.62,6.28-8.08l1.43-1.49,4.3-4.04,2.22-1.89c.35-.3.82-.48,1-.97l-4.03,2.45c-3.49,2.11-7.54,5.69-10.05,8.91l-3.37,4.33c-.85,1.09-1.88,1.92-3.08,2.57-.85.46-1.71.73-2.65.9l-1.41.14h-1.89Z"></path>
        <circle class="cls-1" fill="#FFFFFF" cx="42.96" cy="21.32" r="3.57"></circle>
        <path class="cls-1" fill="#FFFFFF" d="M41.19,32.23c.95-1.24,1.46-2.54,1.45-4.09,1.67,1.44,3.34,2.47,5.44,1.95,2.63-.68,4.7-2.47,6.69-4.38-1.15,2.95-3.3,5.94-6.1,7.31-2.55,1.24-5.08.78-7.49-.8Z"></path>
        <path class="cls-1" fill="#FFFFFF" d="M35.13,47.8l1.5-1.37,2.66-2.64.54-.62-4.43-1.2-3.87-1.03c-.59-.16-1.11-.52-1.57-.93-1.37-1.23-1.38-3.17-.3-4.73l3.36-4.34,2.46-3.15c-2.25-1.55-5.09-1.9-7.71-1.06s-4.58,2.19-6.79,3.82c.43-.82.91-1.45,1.41-2.13,2.52-3.25,5.94-5.98,10.24-5.62,1.64.14,3.15.59,4.65,1.19l1.98.92c1.18.55,1.88,1.69,1.97,3.03.07,1.18-.32,2.36-1.07,3.3l-1.94,2.4-2.63,3.11,2.67.99c1.62.6,3.16,1.23,4.67,2.07.77.43,1.49.92,1.94,1.69.8,1.37-.17,2.97-1.46,3.92l-1.81,1.33-4.54,2.62c-2.44,1.17-4.81,2.28-7.44,3.22l3.01-2.6,2.51-2.2Z"></path>
        <g>
          <path class="cls-1" fill="#FFFFFF" d="M9.48,34.38c-.38,7.02,1.74,13.79,6.2,19.23l-1.54,2.56c-1.2,2.29-1.82,4.74-1.89,7.4C4.76,56.93.41,47.53,0,37.57v-3.39c.42-8.26,3.63-16.09,9.07-22.3l.93-1.01,1.05-1.05c2.92-2.9,6.37-5.2,10.14-6.89S29.2.21,33.45,0h3.32c5.24.28,10.33,1.73,14.9,4.31,2.36,1.33,4.46,2.91,6.42,4.75,1.15,1.07,2.13,2.18,3.12,3.4.04.05.02.21-.04.26l-1.81,1.74-4.68,4.63c-1-1.18-1.9-2.24-2.99-3.23-3.02-2.74-6.58-4.74-10.54-5.76-8.39-2.06-16.86.17-23.17,6.04-5.08,4.72-8.13,11.31-8.5,18.24Z"></path>
          <path class="cls-1" fill="#FFFFFF" d="M21.71,53.42l-1.71,1.79c-1.31,1.37-2.42,2.85-3.38,4.48-1.38,2.46-1.99,5.09-1.89,8-1.49-3.28-.97-6.9.47-10.12.67-1.38,1.42-2.64,2.32-3.87l2.02-2.74,8.39-11.29c.95,1.77,2.47,2.51,4.29,2.94l-.89.95-2.53,2.61-3.93,4.02-3.16,3.23Z"></path>
        </g>
      </g>
    </g>
  </g>
</svg>