<?xml version="1.0"?>
<svg id="Layer_2" xmlns="http://www.w3.org/2000/svg" viewBox="0 0 572.4 108.95">
  <defs>
    
  </defs>
  <g id="Layer_1-2" data-name="Layer_1">
    <g>
      <g>
        <path class="cls-2" fill="#235A7C" d="M193.32,51.11v25c-1.24.76-2.65,1.43-4.23,2.01-1.58.57-3.21,1.06-4.91,1.47-1.7.41-3.41.7-5.16.9-1.74.19-3.38.29-4.91.29-4.3,0-8.13-.72-11.49-2.15-3.37-1.43-6.21-3.37-8.52-5.8-2.32-2.44-4.08-5.26-5.3-8.49-1.22-3.22-1.83-6.62-1.83-10.21,0-3.77.66-7.28,1.97-10.53,1.31-3.25,3.13-6.06,5.44-8.45,2.32-2.39,5.1-4.26,8.34-5.62,3.25-1.36,6.8-2.04,10.67-2.04,4.68,0,8.5.59,11.46,1.75,2.96,1.17,5.44,2.78,7.45,4.83l-4.87,5.23c-2.1-2.01-4.32-3.4-6.66-4.19-2.34-.79-4.8-1.18-7.38-1.18-2.91,0-5.54.54-7.88,1.61-2.34,1.07-4.35,2.52-6.02,4.33-1.67,1.82-2.96,3.95-3.87,6.41-.91,2.46-1.36,5.07-1.36,7.84s.5,5.53,1.5,7.99c1,2.46,2.39,4.6,4.15,6.41,1.77,1.82,3.84,3.24,6.23,4.26,2.39,1.03,4.99,1.54,7.81,1.54,2.44,0,4.74-.23,6.91-.68,2.17-.45,4.02-1.11,5.55-1.97v-14.11h-11.24v-6.45h18.12Z"></path>
        <path class="cls-2" fill="#235A7C" d="M200.63,45.52h6.45v5.23h.14c.43-.91,1-1.73,1.72-2.47.72-.74,1.52-1.37,2.4-1.9.88-.52,1.85-.94,2.9-1.25,1.05-.31,2.1-.47,3.15-.47s2.01.14,2.86.43l-.29,6.95c-.53-.14-1.05-.26-1.58-.36-.53-.1-1.05-.14-1.58-.14-3.15,0-5.56.88-7.23,2.65-1.67,1.77-2.51,4.51-2.51,8.24v17.05h-6.45v-33.95Z"></path>
        <path class="cls-2" fill="#235A7C" d="M227.13,64.86c0,1.48.32,2.83.97,4.05.64,1.22,1.49,2.26,2.54,3.12,1.05.86,2.27,1.53,3.65,2.01,1.38.48,2.82.72,4.3.72,2.01,0,3.75-.47,5.23-1.4,1.48-.93,2.84-2.16,4.08-3.69l4.87,3.72c-3.58,4.63-8.59,6.95-15.04,6.95-2.67,0-5.1-.45-7.27-1.36-2.17-.91-4.01-2.16-5.51-3.76-1.5-1.6-2.66-3.48-3.47-5.66-.81-2.17-1.22-4.52-1.22-7.05s.44-4.88,1.32-7.05c.88-2.17,2.1-4.06,3.65-5.66,1.55-1.6,3.4-2.85,5.55-3.76,2.15-.91,4.49-1.36,7.02-1.36,3.01,0,5.55.53,7.63,1.58,2.08,1.05,3.78,2.42,5.12,4.12,1.34,1.7,2.3,3.61,2.9,5.73.6,2.12.9,4.29.9,6.48v2.29h-27.22ZM247.47,59.7c-.05-1.43-.28-2.75-.68-3.94-.41-1.19-1.02-2.23-1.83-3.12-.81-.88-1.83-1.58-3.04-2.08s-2.64-.75-4.26-.75-3.02.3-4.33.9c-1.31.6-2.42,1.37-3.33,2.33-.91.96-1.61,2.02-2.11,3.19-.5,1.17-.75,2.33-.75,3.47h20.34Z"></path>
        <path class="cls-2" fill="#235A7C" d="M258.64,49.68c1.81-1.67,3.91-2.92,6.3-3.76,2.39-.83,4.77-1.25,7.16-1.25s4.62.31,6.41.93c1.79.62,3.26,1.46,4.4,2.51,1.15,1.05,1.99,2.26,2.54,3.62.55,1.36.82,2.78.82,4.26v17.33c0,1.19.02,2.29.07,3.29.05,1,.12,1.96.21,2.86h-5.73c-.14-1.72-.21-3.44-.21-5.16h-.14c-1.43,2.2-3.13,3.75-5.08,4.66-1.96.91-4.23,1.36-6.8,1.36-1.58,0-3.08-.21-4.51-.64-1.43-.43-2.69-1.07-3.76-1.93-1.07-.86-1.92-1.92-2.54-3.19-.62-1.26-.93-2.73-.93-4.4,0-2.2.49-4.03,1.47-5.51.98-1.48,2.32-2.69,4.01-3.62,1.69-.93,3.68-1.6,5.94-2.01,2.27-.4,4.69-.61,7.27-.61h4.73v-1.43c0-.86-.17-1.72-.5-2.58-.33-.86-.84-1.64-1.5-2.33-.67-.69-1.5-1.24-2.51-1.65-1-.41-2.2-.61-3.58-.61-1.24,0-2.33.12-3.26.36-.93.24-1.78.54-2.54.9-.76.36-1.46.78-2.08,1.25-.62.48-1.22.93-1.79,1.36l-3.87-4.01ZM276.83,63.14c-1.53,0-3.09.08-4.69.25-1.6.17-3.06.49-4.37.97-1.31.48-2.39,1.15-3.22,2.01-.84.86-1.25,1.96-1.25,3.29,0,1.96.66,3.37,1.97,4.23,1.31.86,3.09,1.29,5.34,1.29,1.77,0,3.27-.3,4.51-.9,1.24-.6,2.24-1.37,3.01-2.33.76-.95,1.31-2.02,1.65-3.19.33-1.17.5-2.33.5-3.47v-2.15h-3.44Z"></path>
        <path class="cls-2" fill="#235A7C" d="M310.28,51.11h-9.24v15.4c0,.96.02,1.9.07,2.83.05.93.23,1.77.54,2.51.31.74.79,1.34,1.43,1.79.64.45,1.59.68,2.83.68.76,0,1.55-.07,2.36-.21.81-.14,1.55-.41,2.22-.79v5.87c-.76.43-1.75.73-2.97.9-1.22.17-2.16.25-2.83.25-2.48,0-4.4-.35-5.77-1.04-1.36-.69-2.36-1.59-3.01-2.69-.64-1.1-1.03-2.33-1.15-3.69-.12-1.36-.18-2.73-.18-4.12v-17.69h-7.45v-5.59h7.45v-9.53h6.45v9.53h9.24v5.59Z"></path>
        <path class="cls-1" fill="#2EA84E" d="M316.65,28.76h17.83c3.25,0,5.92.44,8.02,1.33,2.1.88,3.76,2.01,4.98,3.37,1.22,1.36,2.06,2.89,2.54,4.58.48,1.7.72,3.33.72,4.91s-.24,3.21-.72,4.91c-.48,1.7-1.33,3.22-2.54,4.58-1.22,1.36-2.88,2.48-4.98,3.37-2.1.88-4.77,1.32-8.02,1.32h-10.96v22.35h-6.88V28.76ZM323.53,51.11h9.02c1.34,0,2.66-.11,3.97-.32,1.31-.21,2.48-.61,3.51-1.18,1.03-.57,1.85-1.4,2.47-2.47.62-1.07.93-2.47.93-4.19s-.31-3.12-.93-4.19c-.62-1.07-1.44-1.9-2.47-2.47-1.03-.57-2.2-.97-3.51-1.18-1.31-.21-2.64-.32-3.97-.32h-9.02v16.33Z"></path>
        <path class="cls-1" fill="#2EA84E" d="M353.89,25.33h6.45v25.42h.14c.81-1.81,2.22-3.28,4.23-4.4,2.01-1.12,4.32-1.68,6.95-1.68,1.62,0,3.19.25,4.69.75,1.5.5,2.82,1.28,3.94,2.33,1.12,1.05,2.02,2.4,2.69,4.05.67,1.65,1,3.59,1,5.84v21.84h-6.45v-20.05c0-1.58-.22-2.92-.64-4.05-.43-1.12-1-2.03-1.72-2.72-.72-.69-1.54-1.19-2.47-1.5-.93-.31-1.9-.47-2.9-.47-1.34,0-2.58.21-3.72.64-1.15.43-2.15,1.11-3.01,2.04-.86.93-1.53,2.11-2.01,3.54-.48,1.43-.72,3.13-.72,5.08v17.48h-6.45V25.33Z"></path>
        <path class="cls-1" fill="#2EA84E" d="M386.12,45.52h7.45l10.05,26.5h.14l9.64-26.5h6.88l-16.11,41.25c-.57,1.48-1.17,2.83-1.78,4.05s-1.36,2.26-2.21,3.12c-.86.86-1.89,1.53-3.1,2.01-1.21.48-2.7.72-4.46.72-.95,0-1.91-.06-2.89-.18-.97-.12-1.91-.37-2.82-.75l.78-5.87c1.28.52,2.56.79,3.84.79,1,0,1.84-.13,2.53-.39.69-.26,1.28-.64,1.78-1.15.5-.5.91-1.09,1.25-1.75.33-.67.66-1.43,1-2.29l2.09-5.37-14.05-34.16Z"></path>
        <path class="cls-1" fill="#2EA84E" d="M440.41,54.05c-.76-.95-1.71-1.75-2.83-2.4-1.12-.64-2.5-.97-4.12-.97-1.53,0-2.85.32-3.97.97-1.12.64-1.68,1.59-1.68,2.83,0,1,.32,1.82.97,2.44.64.62,1.41,1.12,2.29,1.5.88.38,1.83.67,2.83.86,1,.19,1.86.36,2.58.5,1.38.33,2.69.74,3.9,1.22,1.22.48,2.27,1.1,3.15,1.86.88.76,1.58,1.7,2.08,2.79.5,1.1.75,2.44.75,4.01,0,1.91-.41,3.55-1.22,4.91-.81,1.36-1.86,2.47-3.15,3.33s-2.76,1.48-4.4,1.86c-1.65.38-3.31.57-4.98.57-2.82,0-5.29-.43-7.41-1.29-2.13-.86-4.02-2.44-5.69-4.73l4.87-4.01c1.05,1.05,2.22,1.98,3.51,2.79,1.29.81,2.86,1.22,4.73,1.22.81,0,1.64-.08,2.47-.25.83-.17,1.58-.43,2.22-.79.64-.36,1.17-.81,1.58-1.36.41-.55.61-1.18.61-1.9,0-.95-.3-1.74-.9-2.36-.6-.62-1.31-1.11-2.15-1.47-.84-.36-1.72-.64-2.65-.86-.93-.21-1.75-.39-2.47-.54-1.39-.33-2.7-.72-3.94-1.15-1.24-.43-2.34-1-3.29-1.72-.96-.72-1.72-1.62-2.29-2.72-.57-1.1-.86-2.46-.86-4.08,0-1.77.37-3.31,1.11-4.62.74-1.31,1.72-2.4,2.94-3.26,1.22-.86,2.6-1.5,4.15-1.93,1.55-.43,3.12-.64,4.69-.64,2.29,0,4.49.43,6.59,1.29,2.1.86,3.77,2.29,5.01,4.3l-5.01,3.8Z"></path>
        <path class="cls-1" fill="#2EA84E" d="M449.57,33.35c0-1.29.47-2.4,1.4-3.33.93-.93,2.04-1.4,3.33-1.4s2.4.47,3.33,1.4c.93.93,1.4,2.04,1.4,3.33s-.47,2.4-1.4,3.33c-.93.93-2.04,1.4-3.33,1.4s-2.4-.47-3.33-1.4c-.93-.93-1.4-2.04-1.4-3.33ZM451.08,45.52h6.45v33.95h-6.45v-33.95Z"></path>
        <path class="cls-1" fill="#2EA84E" d="M488.46,54.55c-1.19-1.24-2.45-2.18-3.76-2.83-1.31-.64-2.88-.97-4.69-.97s-3.31.32-4.62.97c-1.31.64-2.41,1.53-3.29,2.65-.88,1.12-1.55,2.41-2.01,3.87-.45,1.46-.68,2.97-.68,4.55s.26,3.07.79,4.48c.53,1.41,1.26,2.64,2.22,3.69.95,1.05,2.1,1.87,3.44,2.47,1.34.6,2.84.9,4.51.9,1.81,0,3.37-.32,4.66-.97,1.29-.64,2.48-1.59,3.58-2.83l4.58,4.58c-1.67,1.86-3.62,3.2-5.84,4.01-2.22.81-4.57,1.22-7.05,1.22-2.63,0-5.03-.43-7.2-1.29-2.17-.86-4.05-2.06-5.62-3.62-1.58-1.55-2.79-3.41-3.65-5.59-.86-2.17-1.29-4.57-1.29-7.2s.43-5.04,1.29-7.23c.86-2.2,2.06-4.08,3.62-5.66,1.55-1.58,3.41-2.8,5.59-3.69,2.17-.88,4.6-1.32,7.27-1.32,2.48,0,4.86.44,7.13,1.32,2.27.88,4.24,2.23,5.91,4.05l-4.87,4.44Z"></path>
        <path class="cls-1" fill="#2EA84E" d="M494.12,33.35c0-1.29.47-2.4,1.4-3.33.93-.93,2.04-1.4,3.33-1.4s2.4.47,3.33,1.4c.93.93,1.4,2.04,1.4,3.33s-.47,2.4-1.4,3.33c-.93.93-2.04,1.4-3.33,1.4s-2.4-.47-3.33-1.4c-.93-.93-1.4-2.04-1.4-3.33ZM495.62,45.52h6.45v33.95h-6.45v-33.95Z"></path>
        <path class="cls-1" fill="#2EA84E" d="M508.87,49.68c1.81-1.67,3.91-2.92,6.3-3.76,2.39-.83,4.77-1.25,7.16-1.25s4.62.31,6.41.93c1.79.62,3.26,1.46,4.4,2.51,1.15,1.05,1.99,2.26,2.54,3.62.55,1.36.82,2.78.82,4.26v17.33c0,1.19.02,2.29.07,3.29.05,1,.12,1.96.21,2.86h-5.73c-.14-1.72-.22-3.44-.22-5.16h-.14c-1.43,2.2-3.13,3.75-5.09,4.66-1.96.91-4.23,1.36-6.8,1.36-1.58,0-3.08-.21-4.51-.64-1.43-.43-2.69-1.07-3.76-1.93s-1.92-1.92-2.54-3.19c-.62-1.26-.93-2.73-.93-4.4,0-2.2.49-4.03,1.47-5.51.98-1.48,2.32-2.69,4.01-3.62,1.69-.93,3.68-1.6,5.94-2.01,2.27-.4,4.69-.61,7.27-.61h4.73v-1.43c0-.86-.17-1.72-.5-2.58-.33-.86-.84-1.64-1.5-2.33-.67-.69-1.5-1.24-2.51-1.65-1-.41-2.2-.61-3.58-.61-1.24,0-2.33.12-3.26.36-.93.24-1.78.54-2.54.9-.76.36-1.46.78-2.08,1.25-.62.48-1.22.93-1.79,1.36l-3.87-4.01ZM527.06,63.14c-1.53,0-3.09.08-4.69.25-1.6.17-3.06.49-4.37.97-1.31.48-2.39,1.15-3.22,2.01-.84.86-1.25,1.96-1.25,3.29,0,1.96.66,3.37,1.97,4.23,1.31.86,3.09,1.29,5.34,1.29,1.77,0,3.27-.3,4.51-.9,1.24-.6,2.24-1.37,3.01-2.33.76-.95,1.31-2.02,1.65-3.19.33-1.17.5-2.33.5-3.47v-2.15h-3.44Z"></path>
        <path class="cls-1" fill="#2EA84E" d="M542.32,45.52h6.45v5.23h.14c.81-1.81,2.22-3.28,4.23-4.4,2.01-1.12,4.32-1.68,6.95-1.68,1.62,0,3.19.25,4.69.75,1.5.5,2.82,1.28,3.94,2.33,1.12,1.05,2.02,2.4,2.69,4.05.67,1.65,1,3.59,1,5.84v21.84h-6.45v-20.05c0-1.58-.22-2.92-.64-4.05-.43-1.12-1-2.03-1.72-2.72-.72-.69-1.54-1.19-2.47-1.5-.93-.31-1.9-.47-2.9-.47-1.34,0-2.58.21-3.72.64-1.15.43-2.15,1.11-3.01,2.04-.86.93-1.53,2.11-2.01,3.54-.48,1.43-.72,3.13-.72,5.08v17.48h-6.45v-33.95Z"></path>
      </g>
      <g>
        <path class="cls-1" fill="#2EA84E" d="M12.36,73.69c.02,1.39-.65,1.75-1.94,1.42-2-.52-4.03-.86-6.11-.74-1.78-3.76-2.77-7.75-3.48-11.82-1.13-6.5-1.13-12.99.2-19.47,2.38-.22,4.55.72,6.79,1.26.85.21.68,1.03,1.09,1.48-1.07,5.94-.62,11.88.47,17.74.64,3.45,1.76,6.82,2.99,10.12Z"></path>
        <g>
          <path class="cls-1" fill="#2EA84E" d="M15.65,50.07c4.32-3.9,8.64-7.8,12.97-11.7.23-.21.46-.4.69-.61q2.87-2.58,6.17-.41c2.92,1.92,2.9,1.91,5.21-.66,3.62-4.03,7.25-8.06,10.91-12.05,1.73-1.89,1.76-1.83,3.84-.22,4.88,3.79,9.12,8.2,12.85,13.1.58.76.99.99,1.75.3.41-.37.96-.56,1.43-.87q2.72-1.82,5.24.39c4.52,3.96,8.34,8.57,12.18,13.15.17.2.32.4.17.93-7.03-2.65-11.05-8.36-14.87-14.4-.72.94-1.35,1.73-1.94,2.55-.51.71-.2,1.22.38,1.79,4.13,4.1,8.28,8.16,12.96,11.7-2.73-.35-5.3-1.21-7.83-2.18-2.57-.99-5.09-2.12-7.65-3.13-.42-.17-.99-.67-1.38-.11-.35.49.21.94.48,1.33,1.79,2.54,4.17,4.47,6.68,6.25.39.28.94.4,1.16,1.07-2.36-.59-4.51-1.5-6.63-2.48-4.7-2.17-9.02-4.98-13.08-8.17-.68-.54-1.13-.65-1.96-.16-6.12,3.65-12.54,6.62-19.45,8.46-.24.06-.48.1-.75.16.07-.45.38-.52.64-.64,6.76-3.24,12.99-7.32,18.73-12.12.95-.79,1.48-.73,2.42,0,1.21.95,2.09,2.37,3.72,2.76.13.08.26.15.38.23.18.21.35.48.69.24-.01.07-.02.14-.03.21.06-.01.13-.02.19-.04-.06-.05-.13-.1-.19-.16-.15-.18-.29-.36-.44-.54-.08-.08-.15-.16-.23-.24-2.17-2.63-4.37-5.24-6.21-8.12-.49-.77-1-.74-1.64-.32-.9.61-1.79,1.25-2.94,1.7.99-2.19,1.98-4.37,3.02-6.68,2.16,1.9,4.05,3.99,6.46,5.43.12.03.23.06.35.09-.03-.12-.06-.24-.1-.35-2.19-3.62-4.38-7.23-6.65-10.97-3.25,4.42-6.42,8.73-9.81,12.86-3.93,4.79-7.94,9.5-13.27,12.85-4.22,2.66-8.76,4.58-13.57,5.88-.38.1-.78.26-1.4-.02,6.86-2.76,12.68-6.72,17.32-12.39-.72-.55-1.4.05-2.07-.28.7-1.71,1.82-3.31,1.59-5.63-5.39,4.45-10.59,8.79-16.29,12.45-.07-.09-.14-.17-.21-.26Z"></path>
          <path class="cls-1" fill="#2EA84E" d="M1.02,43.09C4.32,22.83,21.59,5.29,41.87,1.11,45.92.27,50.04-.2,54.19.08c11.47.77,21.59,4.71,29.85,12.9,1.53,1.52,2.99,3.13,4.19,4.95.29.45.68.83.48,1.6-2.62-3.1-5.5-5.8-8.82-7.96-11.79-7.66-24.39-8.89-37.62-4.51-8.61,2.85-15.92,7.72-21.85,14.62-6.02,7.01-9.82,15.08-11.52,24.15-.41-.45-.25-1.28-1.09-1.48-2.24-.54-4.4-1.48-6.79-1.26Z"></path>
          <path class="cls-1" fill="#2EA84E" d="M12.36,73.69c1.58,3.22,2.98,6.53,5.08,9.49,3.49,4.94,7.83,8.99,12.76,12.44,6,4.21,12.66,6.67,19.88,7.71-.05.34-.01.73-.16,1.03-.65,1.27-.75,2.45.31,3.59.16.17.08.57.12.87-.18-.01-.36-.02-.55-.03-.7-.59-1.43-.51-2.17-.09-7.82-.8-14.89-3.67-21.4-7.98-9.48-6.28-16.64-14.58-21.41-24.91-.21-.46-.34-.95-.51-1.42,2.08-.12,4.11.22,6.11.74,1.29.33,1.96-.04,1.94-1.42Z"></path>
          <path class="cls-1" fill="#2EA84E" d="M50.35,108.81c-.03-.29.05-.69-.12-.87-1.06-1.13-.96-2.31-.31-3.59.15-.29.11-.68.16-1.03,10.46.91,19.83-1.68,27.77-8.76,4.57-4.08,7.15-9.37,9.01-15.08.16-.48.37-.93.55-1.4.08.51.3.9.88.84.99-.09,1.74.38,2.53.87.54.34,1.24.66,1.85.63,1.86-.1,3.28.92,4.83,1.63-5.75,7.64-13.47,13.06-21.1,18.53-5.3,3.81-11.23,6.43-17.7,7.65-2.76.52-5.54.92-8.36.56Z"></path>
          <path class="cls-1" fill="#2EA84E" d="M97.51,82.07c-1.55-.71-2.97-1.73-4.83-1.63-.61.03-1.31-.29-1.85-.63-.79-.5-1.55-.97-2.53-.87-.58.05-.8-.34-.88-.84,1.68-6.22,4.18-12.05,8.07-17.24,2.78.03,5.39,1.51,8.24.94.48-.09,1.02-.12,1.36.4-.86,7.26-3.19,13.95-7.57,19.86Z"></path>
          <path class="cls-1" fill="#2EA84E" d="M105.08,62.21c-.33-.53-.88-.5-1.36-.4-2.85.56-5.46-.91-8.24-.94.12-.69,1.07-.89.99-1.71-.48-.13-.61.44-1,.48-.89-1.46-2.33-2.06-3.89-2.43-1.47-.35-2.99-.51-4.41-1.09,4.68-4.94,10.33-8.4,16.58-10.95.41-.17.81-.48.96.34.98,5.55,1.38,11.11.36,16.71Z"></path>
          <path class="cls-1" fill="#2EA84E" d="M30.86,92.06c.2-.52.5-.91.88-1.27,6.76-6.56,12.15-14.15,16.71-22.36.39-.7.25-.93-.4-1.22-2.83-1.23-5.64-1.19-8.46,0-.33.14-.64.33-.98.42-.17.04-.38-.09-.57-.14.05-.18.04-.41.16-.52,1.82-1.77,3.85-3.14,6.51-3.08.71.02,1.26-.39,1.91-.4,1.9-.01,3.75.32,5.46,1.12,2.28,1.06,2.92,2.9,1.81,5.19-1.49,3.09-3.55,5.83-5.58,8.58-4.2,5.68-9.31,10.27-15.78,13.25-.5.23-.95.61-1.66.43Z"></path>
          <path class="cls-1" fill="#2EA84E" d="M87.18,56.11c1.42.58,2.94.74,4.41,1.09,1.56.37,3,.97,3.89,2.43-4.77,4.12-8.1,9.19-9.98,15.2-.42-.63-1.17-.65-1.76-.7-2.22-.2-3.75-1.12-4.18-3.43.77-5.79,3.51-10.54,7.62-14.59Z"></path>
          <path class="cls-1" fill="#2EA84E" d="M93,92.65c2.68-.81,5.35-.51,8,.15.49,1.01.31,2.04.15,3.1-.2,1.23.12,2.28,1.47,2.72-1.33,2.25-3.11,3.98-5.62,4.86-.51-.31-.9-.68-1.26-1.2-.93-1.35-1.98-2.62-2.8-4.05.99-.6,2.18-.62,3.63-1.19-.94,0-1.49,0-2.03,0-1.29-.31-1.74-1.12-1.54-2.42.1-.64,0-1.32,0-1.97Z"></path>
          <path class="cls-1" fill="#2EA84E" d="M47.8,80.97c.87-1.18,1.54-2.33,2.44-3.25.85-.86,2.06-.6,3.09-.29,1.15.35,2.35.48,3.45,1.04,1.87.96,2.3,2.5,1.05,4.23-.75,1.05-1.76,1.84-2.8,2.58-2.21,1.57-4.62,2.76-7.2,3.58-.35.11-.81.48-1.07.04-.25-.44.26-.71.56-.95,2.07-1.6,3.95-3.38,5.54-5.46.15-.2.29-.41.51-.73-1.79-.65-3.63-.46-5.57-.8Z"></path>
          <path class="cls-1" fill="#2EA84E" d="M79.55,70.69c.44,2.32,1.97,3.23,4.18,3.43.59.05,1.34.07,1.76.7-1.37,5.09-2.21,10.37-5.6,14.74.18-.93.39-1.86.53-2.8.43-2.83-.23-5.58-.69-8.35-.42-2.57-.8-5.13-.18-7.72Z"></path>
          <path class="cls-1" fill="#2EA84E" d="M92.95,98.23c.81,1.43,1.86,2.7,2.8,4.05.36.52.75.89,1.26,1.2-4.41,1.74-8.55.99-12.75-1.4,2.84-1.67,5.64-3.03,8.69-3.85Z"></path>
          <path class="cls-1" fill="#2EA84E" d="M93,92.65c0,.66.11,1.33,0,1.97-.2,1.3.24,2.11,1.54,2.42-5.36.89-10.27,3.1-15.25,5.22,3.87-2.23,6.03-6.45,10.14-8.35,1.16-.54,2.29-1.09,3.57-1.26Z"></path>
          <path class="cls-1" fill="#2EA84E" d="M65.43,66.72c-1.45,3.96-4.75,6.6-7.98,6.49-.55-.02-1.11-.12-1.64-.28-1.67-.52-1.74-.74-.94-2.33.27-.54.51-1.1.77-1.69,4.01,2.88,6.75.02,9.79-2.19Z"></path>
          <path class="cls-1" fill="#2EA84E" d="M59.11,61.82c-.01,1.69-1.33,3.04-2.99,3.06-1.62.02-3.04-1.4-3.03-3.01.02-1.77,1.42-3.04,3.31-2.99,1.5.04,2.71,1.36,2.7,2.95Z"></path>
          <path class="cls-1" fill="#2EA84E" d="M102.62,98.62c-1.35-.44-1.67-1.49-1.47-2.72.17-1.06.34-2.09-.15-3.1,1.61.42,3.23.84,5.21,1.36-1.76,1.22-2.46,3-3.6,4.46Z"></path>
          <path class="cls-1" fill="#2EA84E" d="M47.63,108.69c.74-.42,1.47-.51,2.17.09-.72-.03-1.45-.06-2.17-.09Z"></path>
        </g>
      </g>
    </g>
  </g>
</svg>