<svg xmlns="http://www.w3.org/2000/svg" viewBox="0 0 512 512">
  <rect width="512" height="512" rx="0" fill="#102A3B"/>
  <g transform="translate(130, 140) scale(2.38)">
    <path fill="#fff" d="M12.36,73.69c.02,1.39-.65,1.75-1.94,1.42-2-.52-4.03-.86-6.11-.74-1.78-3.76-2.77-7.75-3.48-11.82-1.13-6.5-1.13-12.99.2-19.47,2.38-.22,4.55.72,6.79,1.26.85.21.68,1.03,1.09,1.48-1.07,5.94-.62,11.88.47,17.74.64,3.45,1.76,6.82,2.99,10.12Z"/>
    <path fill="#fff" d="M15.65,50.07c4.32-3.9,8.64-7.8,12.97-11.7.23-.21.46-.4.69-.61q2.87-2.58,6.17-.41c2.92,1.92,2.9,1.91,5.21-.66,3.62-4.03,7.25-8.06,10.91-12.05,1.73-1.89,1.76-1.83,3.84-.22,4.88,3.79,9.12,8.2,12.85,13.1.58.76.99.99,1.75.3.41-.37.96-.56,1.43-.87q2.72-1.82,5.24.39c4.52,3.96,8.34,8.57,12.18,13.15.17.2.32.4.17.93-7.03-2.65-11.05-8.36-14.87-14.4-.72.94-1.35,1.73-1.94,2.55-.51.71-.2,1.22.38,1.79,4.13,4.1,8.28,8.16,12.96,11.7-2.73-.35-5.3-1.21-7.83-2.18-2.57-.99-5.09-2.12-7.65-3.13-.42-.17-.99-.67-1.38-.11-.35.49.21.94.48,1.33,1.79,2.54,4.17,4.47,6.68,6.25.39.28.94.4,1.16,1.07-2.36-.59-4.51-1.5-6.63-2.48-4.7-2.17-9.02-4.98-13.08-8.17-.68-.54-1.13-.65-1.96-.16-6.12,3.65-12.54,6.62-19.45,8.46-.24.06-.48.1-.75.16.07-.45.38-.52.64-.64,6.76-3.24,12.99-7.32,18.73-12.12.95-.79,1.48-.73,2.42,0,1.21.95,2.09,2.37,3.72,2.76.13.08.26.15.38.23.18.21.35.48.69.24-.01.07-.02.14-.03.21.06-.01.13-.02.19-.04-.06-.05-.13-.1-.19-.16-.15-.18-.29-.36-.44-.54-.08-.08-.15-.16-.23-.24-2.17-2.63-4.37-5.24-6.21-8.12-.49-.77-1-.74-1.64-.32-.9.61-1.79,1.25-2.94,1.7.99-2.19,1.98-4.37,3.02-6.68,2.16,1.9,4.05,3.99,6.46,5.43.12.03.23.06.35.09-.03-.12-.06-.24-.1-.35-2.19-3.62-4.38-7.23-6.65-10.97-3.25,4.42-6.42,8.73-9.81,12.86-3.93,4.79-7.94,9.5-13.27,12.85-4.22,2.66-8.76,4.58-13.57,5.88-.38.1-.78.26-1.4-.02,6.86-2.76,12.68-6.72,17.32-12.39-.72-.55-1.4.05-2.07-.28.7-1.71,1.82-3.31,1.59-5.63-5.39,4.45-10.59,8.79-16.29,12.45-.07-.09-.14-.17-.21-.26Z"/>
    <path fill="#fff" d="M1.02,43.09C4.32,22.83,21.59,5.29,41.87,1.11,45.92.27,50.04-.2,54.19.08c11.47.77,21.59,4.71,29.85,12.9,1.53,1.52,2.99,3.13,4.19,4.95.29.45.68.83.48,1.6-2.62-3.1-5.5-5.8-8.82-7.96-11.79-7.66-24.39-8.89-37.62-4.51-8.61,2.85-15.92,7.72-21.85,14.62-6.02,7.01-9.82,15.08-11.52,24.15-.41-.45-.25-1.28-1.09-1.48-2.24-.54-4.4-1.48-6.79-1.26Z"/>
    <path fill="#fff" d="M12.36,73.69c1.58,3.22,2.98,6.53,5.08,9.49,3.49,4.94,7.83,8.99,12.76,12.44,6,4.21,12.66,6.67,19.88,7.71-.05.34-.01.73-.16,1.03-.65,1.27-.75,2.45.31,3.59.16.17.08.57.12.87-.18-.01-.36-.02-.55-.03-.7-.59-1.43-.51-2.17-.09-7.82-.8-14.89-3.67-21.4-7.98-9.48-6.28-16.64-14.58-21.41-24.91-.21-.46-.34-.95-.51-1.42,2.08-.12,4.11.22,6.11.74,1.29.33,1.96-.04,1.94-1.42Z"/>
    <path fill="#fff" d="M50.35,108.81c-.03-.29.05-.69-.12-.87-1.06-1.13-.96-2.31-.31-3.59.15-.29.11-.68.16-1.03,10.46.91,19.83-1.68,27.77-8.76,4.57-4.08,7.15-9.37,9.01-15.08.16-.48.37-.93.55-1.4.08.51.3.9.88.84.99-.09,1.74.38,2.53.87.54.34,1.24.66,1.85.63,1.86-.1,3.28.92,4.83,1.63-5.75,7.64-13.47,13.06-21.1,18.53-5.3,3.81-11.23,6.43-17.7,7.65-2.76.52-5.54.92-8.36.56Z"/>
    <path fill="#fff" d="M97.51,82.07c-1.55-.71-2.97-1.73-4.83-1.63-.61.03-1.31-.29-1.85-.63-.79-.5-1.55-.97-2.53-.87-.58.05-.8-.34-.88-.84,1.68-6.22,4.18-12.05,8.07-17.24,2.78.03,5.39,1.51,8.24.94.48-.09,1.02-.12,1.36.4-.86,7.26-3.19,13.95-7.57,19.86Z"/>
    <path fill="#fff" d="M105.08,62.21c-.33-.53-.88-.5-1.36-.4-2.85.56-5.46-.91-8.24-.94.12-.69,1.07-.89.99-1.71-.48-.13-.61.44-1,.48-.89-1.46-2.33-2.06-3.89-2.43-1.47-.35-2.99-.51-4.41-1.09,4.68-4.94,10.33-8.4,16.58-10.95.41-.17.81-.48.96.34.98,5.55,1.38,11.11.36,16.71Z"/>
    <path fill="#fff" d="M30.86,92.06c.2-.52.5-.91.88-1.27,6.76-6.56,12.15-14.15,16.71-22.36.39-.7.25-.93-.4-1.22-2.83-1.23-5.64-1.19-8.46,0-.33.14-.64.33-.98.42-.17.04-.38-.09-.57-.14.05-.18.04-.41.16-.52,1.82-1.77,3.85-3.14,6.51-3.08.71.02,1.26-.39,1.91-.4,1.9-.01,3.75.32,5.46,1.12,2.28,1.06,2.92,2.9,1.81,5.19-1.49,3.09-3.55,5.83-5.58,8.58-4.2,5.68-9.31,10.27-15.78,13.25-.5.23-.95.61-1.66.43Z"/>
    <path fill="#fff" d="M87.18,56.11c1.42.58,2.94.74,4.41,1.09,1.56.37,3,.97,3.89,2.43-4.77,4.12-8.1,9.19-9.98,15.2-.42-.63-1.17-.65-1.76-.7-2.22-.2-3.75-1.12-4.18-3.43.77-5.79,3.51-10.54,7.62-14.59Z"/>
    <path fill="#fff" d="M93,92.65c2.68-.81,5.35-.51,8,.15.49,1.01.31,2.04.15,3.1-.2,1.23.12,2.28,1.47,2.72-1.33,2.25-3.11,3.98-5.62,4.86-.51-.31-.9-.68-1.26-1.2-.93-1.35-1.98-2.62-2.8-4.05.99-.6,2.18-.62,3.63-1.19-.94,0-1.49,0-2.03,0-1.29-.31-1.74-1.12-1.54-2.42.1-.64,0-1.32,0-1.97Z"/>
    <path fill="#fff" d="M47.8,80.97c.87-1.18,1.54-2.33,2.44-3.25.85-.86,2.06-.6,3.09-.29,1.15.35,2.35.48,3.45,1.04,1.87.96,2.3,2.5,1.05,4.23-.75,1.05-1.76,1.84-2.8,2.58-2.21,1.57-4.62,2.76-7.2,3.58-.35.11-.81.48-1.07.04-.25-.44.26-.71.56-.95,2.07-1.6,3.95-3.38,5.54-5.46.15-.2.29-.41.51-.73-1.79-.65-3.63-.46-5.57-.8Z"/>
    <path fill="#fff" d="M79.55,70.69c.44,2.32,1.97,3.23,4.18,3.43.59.05,1.34.07,1.76.7-1.37,5.09-2.21,10.37-5.6,14.74.18-.93.39-1.86.53-2.8.43-2.83-.23-5.58-.69-8.35-.42-2.57-.8-5.13-.18-7.72Z"/>
    <path fill="#fff" d="M92.95,98.23c.81,1.43,1.86,2.7,2.8,4.05.36.52.75.89,1.26,1.2-4.41,1.74-8.55.99-12.75-1.4,2.84-1.67,5.64-3.03,8.69-3.85Z"/>
    <path fill="#fff" d="M93,92.65c0,.66.11,1.33,0,1.97-.2,1.3.24,2.11,1.54,2.42-5.36.89-10.27,3.1-15.25,5.22,3.87-2.23,6.03-6.45,10.14-8.35,1.16-.54,2.29-1.09,3.57-1.26Z"/>
    <path fill="#fff" d="M65.43,66.72c-1.45,3.96-4.75,6.6-7.98,6.49-.55-.02-1.11-.12-1.64-.28-1.67-.52-1.74-.74-.94-2.33.27-.54.51-1.1.77-1.69,4.01,2.88,6.75.02,9.79-2.19Z"/>
    <path fill="#fff" d="M59.11,61.82c-.01,1.69-1.33,3.04-2.99,3.06-1.62.02-3.04-1.4-3.03-3.01.02-1.77,1.42-3.04,3.31-2.99,1.5.04,2.71,1.36,2.7,2.95Z"/>
    <path fill="#fff" d="M102.62,98.62c-1.35-.44-1.67-1.49-1.47-2.72.17-1.06.34-2.09-.15-3.1,1.61.42,3.23.84,5.21,1.36-1.76,1.22-2.46,3-3.6,4.46Z"/>
    <path fill="#fff" d="M47.63,108.69c.74-.42,1.47-.51,2.17.09-.72-.03-1.45-.06-2.17-.09Z"/>
  </g>
</svg>
